<svg width="150" height="24" viewBox="0 0 150 24" fill="none" xmlns="http://www.w3.org/2000/svg">
<g clip-path="url(#clip0_1097_2910)">
<path d="M3.83307 14.6923C3.83307 16.6764 4.77889 16.802 4.77889 16.802H0C0 16.802 0.896042 16.6764 0.896042 14.6672V2.18502C0.896042 0.200923 0 0.0502319 0 0.0502319H4.77889C4.77889 0.0502319 3.83307 0.175807 3.83307 2.23525V8.79029L9.55779 2.18502C11.2752 0.200923 10.4787 0.0502319 10.4787 0.0502319H13.6646C13.6646 0.0502319 12.6193 0.175807 10.8272 2.23525L5.79939 8.03684L11.0761 14.6923C12.669 16.6764 13.6895 16.802 13.6895 16.802H8.91064C8.91064 16.802 9.73202 16.6764 8.13905 14.6672L4.2562 9.79489L3.83307 10.2972V14.6923Z" fill="#111111"/>
<path d="M35.4434 12.4571V2.23525C35.4434 0.175807 36.3643 0.0502319 36.3643 0.0502319H31.5854C31.5854 0.0502319 32.5064 0.200923 32.5064 2.18502V12.4069C32.5064 14.4412 31.5854 14.5417 31.5854 14.5417H36.3643C36.3643 14.5417 35.4434 14.4161 35.4434 12.4571Z" fill="#111111"/>
<path d="M40.2723 3.91793C40.2723 0.803656 43.3835 0.0753175 45.8974 0.0753175C48.1584 0.0750884 50.3923 0.572187 52.4435 1.53199L51.0248 3.71701C50.8505 3.0389 48.6602 0.879001 45.8974 0.879001C43.5328 0.879001 42.9604 2.2101 42.9604 3.21471C42.9604 5.1988 43.9809 5.04811 46.8681 6.17829C49.9545 7.3587 53.1653 8.48888 53.1653 12.231C53.1653 15.9732 49.9047 16.802 45.6983 16.802C43.2093 16.802 40.4714 15.9732 39.3513 14.7928L41.5416 12.0552C41.7736 13.1444 42.376 14.1173 43.2443 14.8053C44.1125 15.4934 45.192 15.8532 46.2956 15.8225C48.3864 15.8225 50.2034 15.0942 50.2034 12.5826C50.2034 10.0711 46.3454 8.66469 44.4787 8.03681C41.6661 7.05732 40.2723 5.82668 40.2723 3.91793Z" fill="#111111"/>
<path d="M68.821 0.0502319L68.7961 3.29008C68.7961 3.29008 68.2237 1.13018 63.7434 0.8288C63.605 1.25844 63.5377 1.70817 63.5443 2.1599V14.617C63.5443 16.6764 64.4901 16.802 64.4901 16.802H59.7113C59.7113 16.802 60.6073 16.6513 60.6073 14.6672V2.18502C60.626 1.72433 60.5585 1.26422 60.4082 0.8288C55.9777 1.13018 55.4053 3.29008 55.4053 3.29008V0.0502319H68.821Z" fill="#111111"/>
<path d="M77.7366 10.7492L76.7186 8.03681H71.6659L70.6479 10.7492C70.1028 12.216 70.7375 12.3064 70.7375 12.3064H68.4302C68.4302 12.3064 69.1395 12.216 69.6747 10.7668L73.0647 1.67013C73.6272 0.16322 72.9751 0.0753174 72.9751 0.0753174H75.1356C75.4815 0.0753174 75.8997 0.241077 76.4995 1.67013L79.8796 10.7668C80.4247 12.216 81.1241 12.3064 81.1241 12.3064H77.6569C77.6569 12.3064 78.2817 12.216 77.7366 10.7492ZM76.4274 7.24568L74.3366 1.63497C74.3006 1.50822 74.2523 1.38539 74.1922 1.26829C74.1324 1.3858 74.0833 1.50852 74.0454 1.63497L71.9571 7.24568H76.4274Z" fill="#111111"/>
<path d="M90.9234 17.1034C86.1197 17.1034 82.2368 13.2357 82.2368 8.48891C82.2368 4.19422 85.2983 0 91.247 0C94.4081 0 96.9468 1.0046 98.0669 3.23985L95.5032 4.52072C95.4037 2.71243 94.2338 0.627878 91.2719 0.627878C87.5882 0.627878 85.1987 3.54123 85.1987 8.28799C85.1987 12.5827 87.7624 16.0737 90.9234 16.0737C92.168 16.0737 94.2338 16.149 94.2338 13.4115V10.1465C94.2543 9.67752 94.1868 9.20884 94.0347 8.76517C89.1065 8.91587 88.5091 11.2516 88.5091 11.2516L88.4842 8.01172H98.1167C98.1167 8.01172 97.1709 8.1373 97.1709 10.1967V14.6923C97.1709 16.6764 98.1167 16.802 98.1167 16.802C94.881 16.5006 93.7111 17.1034 90.9234 17.1034Z" fill="#111111"/>
<path d="M115.515 16.0485C111.034 16.0485 109.683 12.9292 109.292 10.8397C109.735 10.7668 110.171 10.6639 110.606 10.5483C110.914 10.4662 111.218 10.3673 111.515 10.252C112.055 10.0452 112.564 9.76641 113.031 9.42317C113.459 9.10895 113.832 8.72536 114.136 8.28796C114.431 7.86196 114.65 7.38788 114.785 6.88654C114.908 6.42289 114.969 5.94489 114.967 5.46502C114.967 1.7078 111.059 0.175781 106.28 0.175781H100.78C100.78 0.175781 101.676 0.326472 101.676 2.31057V14.7928C101.676 16.802 100.78 16.9276 100.78 16.9276H105.559C105.559 16.9276 104.613 16.802 104.613 14.8179V10.699H104.645C105.262 10.8242 105.887 10.9081 106.514 10.9502C107.859 14.8028 110.348 16.802 114.519 16.802C117.058 16.802 118.9 15.9732 119.547 14.5165C119.422 14.6923 118.253 16.0485 115.515 16.0485ZM104.613 9.76975V2.3608C104.609 2.05769 104.634 1.75488 104.688 1.45665C105.198 1.26741 105.737 1.16555 106.28 1.15527C109.417 1.15527 111.98 2.46126 111.98 5.65088C111.98 8.84049 109.417 9.97067 106.256 9.97067C105.702 9.9724 105.15 9.90491 104.613 9.76975Z" fill="#111111"/>
<path d="M148.096 2.23525L148.942 14.6923C149.091 16.6764 150.012 16.802 150.012 16.802H145.234C145.234 16.802 146.154 16.6764 146.005 14.6672L145.159 2.18502C145.134 1.95898 145.109 1.75806 145.084 1.58225C145.01 1.74969 144.935 1.95061 144.86 2.18502L140.529 15.4207C140.355 15.9732 140.032 16.802 138.563 16.802L133.772 2.18502C133.672 1.90875 133.573 1.6576 133.473 1.43156C133.424 1.68038 133.391 1.93202 133.373 2.18502L132.527 14.6672C132.378 16.6764 133.299 16.802 133.299 16.802H130.138C130.138 16.802 131.084 16.6764 131.208 14.6923L132.054 2.23525C132.204 0.175807 131.283 0.0502319 131.283 0.0502319H136.958C136.958 0.0502319 136.037 0.175807 136.734 2.23525L140.131 12.6329L143.541 2.23525C144.213 0.175807 143.292 0.0502319 143.292 0.0502319H148.867C148.867 0.0502319 147.934 0.175807 148.096 2.23525Z" fill="#111111"/>
<path d="M59.7908 20.3432C59.3328 20.5827 58.8616 20.7956 58.3796 20.9812C57.6764 21.2428 56.9582 21.4617 56.2291 21.6367C54.5939 22.0578 52.93 22.3558 51.2511 22.5283C41.9173 23.5329 36.5659 19.5848 31.0777 15.481C29.9203 14.6145 27.5184 12.442 26.2664 11.6358C26.0524 11.4977 25.8383 11.3596 25.6193 11.2265C25.3155 11.0423 24.9856 10.9059 24.6411 10.8221C24.9589 10.7782 25.2733 10.7119 25.5819 10.6237C25.8174 10.5585 26.0569 10.509 26.2988 10.4755C29.2184 9.76476 30.8636 7.95647 30.8636 5.34952C30.8636 1.58225 26.9559 0.0502319 22.177 0.0502319H16.6763C16.6763 0.0502319 17.5723 0.200923 17.5723 2.18502V14.6672C17.5723 16.6764 16.6763 16.802 16.6763 16.802H21.4552C21.4552 16.802 20.5093 16.6764 20.5093 14.6923V10.5735C20.6612 10.6162 20.803 10.6513 20.9399 10.684L20.5093 10.6689C21.2312 10.7091 22.0376 11.2214 22.5528 11.5002C26.1021 13.4316 28.7753 15.9029 31.7771 18.1632C37.2529 22.2947 45.5039 25.409 53.8546 23.3445C56.0424 22.802 58.2477 21.9908 59.9974 20.946C60.0696 20.9008 65.7246 17.1486 59.7908 20.3432ZM20.5093 9.6442V2.23525C20.5051 1.93214 20.5302 1.62933 20.584 1.3311C21.0947 1.14186 21.6331 1.04 22.177 1.02972C25.3131 1.02972 27.8768 2.33571 27.8768 5.52533C27.8768 8.71494 25.3131 9.84512 22.1521 9.84512C21.5984 9.84685 21.0466 9.77936 20.5093 9.6442Z" fill="#111111"/>
<path d="M125.132 16.807H129.906C129.906 16.807 128.935 16.6814 128.191 14.6998L123.567 2.26033C122.745 0.298842 122.175 0.0753174 121.712 0.0753174H118.743C118.743 0.0753174 119.639 0.200893 118.867 2.25782L115.644 10.9301L115.146 12.2813C114.4 14.2628 113.431 14.3884 113.431 14.3884H116.585C116.585 14.3884 115.798 14.2754 116.361 12.5399L116.953 10.9627H123.865L125.257 14.6747C126.003 16.6814 125.132 16.807 125.132 16.807ZM117.352 9.88277L120.219 2.20759C120.27 2.03444 120.337 1.86632 120.418 1.70529C120.499 1.86632 120.566 2.03444 120.617 2.20759L123.477 9.88277H117.352Z" fill="#111111"/>
<circle cx="75" cy="16" r="2" fill="#111111"/>
</g>
<defs>
<clipPath id="clip0_1097_2910">
<rect width="150" height="24" fill="white"/>
</clipPath>
</defs>
</svg>
