<svg width="1024" height="150" viewBox="0 0 1024 150" fill="none" xmlns="http://www.w3.org/2000/svg">
<path d="M244.441 87.7189C244.441 98.2717 249.485 98.9396 249.485 98.9396H224C224 98.9396 228.778 98.2717 228.778 87.5853V21.1961C228.778 10.6433 224 9.8418 224 9.8418H249.485C249.485 9.8418 244.441 10.5097 244.441 21.4633V56.3276L274.971 21.1961C284.129 10.6433 279.882 9.8418 279.882 9.8418H296.872C296.872 9.8418 291.297 10.5097 281.74 21.4633L254.927 52.3202L283.068 87.7189C291.563 98.2717 297.005 98.9396 297.005 98.9396H271.519C271.519 98.9396 275.9 98.2717 267.405 87.5853L246.698 61.6708L244.441 64.3424V87.7189Z" fill="white"/>
<path d="M413.016 75.8303V21.4633C413.016 10.5097 417.927 9.8418 417.927 9.8418H392.442C392.442 9.8418 397.353 10.6433 397.353 21.1961V75.5631C397.353 86.3831 392.442 86.9174 392.442 86.9174H417.927C417.927 86.9174 413.016 86.2495 413.016 75.8303Z" fill="white"/>
<path d="M438.767 30.4127C438.767 13.8488 455.359 9.97498 468.766 9.97498C480.824 9.97376 492.737 12.6177 503.675 17.7226L496.109 29.3441C495.18 25.7374 483.5 14.2495 468.766 14.2495C456.156 14.2495 453.103 21.3293 453.103 26.6725C453.103 37.2253 458.545 36.4238 473.943 42.4349C490.402 48.7132 507.525 54.7243 507.525 74.6277C507.525 94.5311 490.136 98.9392 467.704 98.9392C454.43 98.9392 439.829 94.5311 433.856 88.2528L445.537 73.6926C446.774 79.4854 449.987 84.66 454.617 88.3196C459.247 91.9792 465.004 93.8931 470.89 93.7296C482.039 93.7296 491.729 89.8558 491.729 76.4978C491.729 63.1398 471.155 55.6593 461.2 52.3198C446.201 47.1102 438.767 40.5648 438.767 30.4127Z" fill="white"/>
<path d="M591.015 9.8418L590.882 27.0736C590.882 27.0736 587.829 15.5857 563.937 13.9828C563.199 16.2679 562.84 18.6599 562.875 21.0625V87.3182C562.875 98.2717 567.919 98.9396 567.919 98.9396H542.434C542.434 98.9396 547.212 98.1381 547.212 87.5853V21.1961C547.312 18.7459 546.952 16.2986 546.15 13.9828C522.523 15.5857 519.47 27.0736 519.47 27.0736V9.8418H591.015Z" fill="white"/>
<path d="M638.561 66.7465L633.132 52.3198H606.186L600.757 66.7465C597.851 74.5475 601.235 75.0284 601.235 75.0284H588.931C588.931 75.0284 592.714 74.5475 595.567 66.84L613.646 18.4573C616.646 10.4425 613.168 9.97498 613.168 9.97498H624.69C626.535 9.97498 628.765 10.8566 631.964 18.4573L649.989 66.84C652.896 74.5475 656.626 75.0284 656.626 75.0284H638.136C638.136 75.0284 641.468 74.5475 638.561 66.7465ZM631.579 48.1121L620.429 18.2703C620.237 17.5962 619.979 16.9429 619.659 16.32C619.34 16.945 619.078 17.5978 618.876 18.2703L607.739 48.1121H631.579Z" fill="white"/>
<path d="M708.885 100.542C683.267 100.542 662.56 79.9711 662.56 54.7245C662.56 31.8823 678.886 9.57446 710.61 9.57446C727.468 9.57446 741.007 14.9177 746.98 26.8063L733.308 33.6189C732.777 24.0011 726.539 12.914 710.743 12.914C691.098 12.914 678.356 28.4092 678.356 53.6558C678.356 76.498 692.027 95.0656 708.885 95.0656C715.522 95.0656 726.539 95.4664 726.539 80.9062V63.5408C726.648 61.0463 726.288 58.5536 725.477 56.1939C699.195 56.9953 696.009 69.4183 696.009 69.4183L695.877 52.1865H747.246C747.246 52.1865 742.202 52.8544 742.202 63.8079V87.7187C742.202 98.2716 747.246 98.9395 747.246 98.9395C729.99 97.3365 723.751 100.542 708.885 100.542Z" fill="white"/>
<path d="M840.027 94.9319C816.135 94.9319 808.927 78.3413 806.843 67.2274C809.206 66.8401 811.529 66.2924 813.852 65.6779C815.494 65.2413 817.111 64.7151 818.697 64.1017C821.575 63.0017 824.293 61.5192 826.78 59.6935C829.063 58.0223 831.054 55.9821 832.674 53.6557C834.246 51.3899 835.418 48.8684 836.138 46.202C836.792 43.736 837.118 41.1936 837.107 38.6413C837.107 18.6578 816.268 10.5094 790.782 10.5094H761.448C761.448 10.5094 766.226 11.3109 766.226 21.8637V88.2529C766.226 98.9393 761.448 99.6072 761.448 99.6072H786.933C786.933 99.6072 781.889 98.9393 781.889 88.3865V66.4794H782.062C785.351 67.1453 788.682 67.5915 792.03 67.8152C799.198 88.3064 812.471 98.9393 834.718 98.9393C848.257 98.9393 858.079 94.5312 861.531 86.7835C860.867 87.7186 854.628 94.9319 840.027 94.9319ZM781.889 61.5369V22.1309C781.867 20.5187 782 18.9082 782.287 17.322C785.01 16.3154 787.882 15.7737 790.782 15.719C807.507 15.719 821.179 22.6652 821.179 39.6298C821.179 56.5945 807.507 62.6056 790.65 62.6056C787.697 62.6147 784.754 62.2558 781.889 61.5369V61.5369Z" fill="#F06B41"/>
<path d="M1013.78 21.4633L1018.29 87.7189C1019.09 98.2717 1024 98.9396 1024 98.9396H998.515C998.515 98.9396 1003.43 98.2717 1002.63 87.5853L998.116 21.1961C997.984 19.9939 997.851 18.9252 997.718 17.9902C997.32 18.8807 996.922 19.9493 996.524 21.1961L973.427 91.5927C972.498 94.5315 970.773 98.9396 962.941 98.9396L937.39 21.1961C936.859 19.7267 936.328 18.3909 935.797 17.1887C935.537 18.5121 935.36 19.8505 935.266 21.1961L930.753 87.5853C929.956 98.2717 934.868 98.9396 934.868 98.9396H918.01C918.01 98.9396 923.054 98.2717 923.718 87.7189L928.231 21.4633C929.027 10.5097 924.116 9.8418 924.116 9.8418H954.38C954.38 9.8418 949.469 10.5097 953.185 21.4633L971.304 76.7653L989.489 21.4633C993.072 10.5097 988.161 9.8418 988.161 9.8418H1017.89C1017.89 9.8418 1012.92 10.5097 1013.78 21.4633Z" fill="white"/>
<path d="M542.858 117.774C540.415 119.048 537.902 120.181 535.332 121.167C531.582 122.559 527.752 123.723 523.864 124.654C515.143 126.893 506.27 128.478 497.316 129.396C447.54 134.739 419.002 113.74 389.734 91.9133C383.562 87.3048 370.753 75.7501 364.076 71.4622C362.934 70.7275 361.793 69.9928 360.625 69.2849C359.005 68.3052 357.246 67.58 355.408 67.1342C357.103 66.9008 358.78 66.5482 360.426 66.079C361.681 65.7322 362.958 65.4689 364.248 65.2908C379.818 61.5105 388.592 51.8928 388.592 38.0272C388.592 17.9902 367.753 9.8418 342.267 9.8418H312.933C312.933 9.8418 317.711 10.6433 317.711 21.1961V87.5853C317.711 98.2717 312.933 98.9396 312.933 98.9396H338.418C338.418 98.9396 333.374 98.2717 333.374 87.7189V65.8118C334.184 66.0389 334.94 66.2259 335.67 66.3995L333.374 66.3194C337.223 66.5331 341.524 69.2582 344.272 70.7409C363.2 81.0132 377.456 94.1575 393.464 106.18C422.666 128.154 466.668 144.717 511.201 133.737C522.868 130.852 534.628 126.537 543.96 120.98C544.345 120.74 574.502 100.783 542.858 117.774ZM333.374 60.8693V21.4633C333.352 19.8511 333.485 18.2406 333.772 16.6544C336.496 15.6478 339.367 15.1061 342.267 15.0514C358.992 15.0514 372.664 21.9976 372.664 38.9622C372.664 55.9269 358.992 61.938 342.135 61.938C339.182 61.9471 336.239 61.5882 333.374 60.8693V60.8693Z" fill="#F06B41"/>
<path d="M891.316 98.9659H916.775C916.775 98.9659 911.599 98.2981 907.63 87.7586L882.967 21.5964C878.587 11.1638 875.547 9.97498 873.079 9.97498H857.243C857.243 9.97498 862.022 10.6429 857.907 21.5831L840.718 67.7082L838.063 74.8948C834.081 85.4343 828.917 86.1022 828.917 86.1022H845.735C845.735 86.1022 841.54 85.5011 844.54 76.2707L847.699 67.8819H884.56L891.98 87.625C895.962 98.2981 891.316 98.9659 891.316 98.9659ZM849.823 62.138L865.114 21.3159C865.388 20.395 865.743 19.5008 866.176 18.6443C866.61 19.5008 866.965 20.395 867.238 21.3159L882.49 62.138H849.823Z" fill="white"/>
<ellipse cx="625.066" cy="94.6739" rx="10.6658" ry="10.6374" fill="#F06B41"/>
<path d="M88.1455 21.0598C91.1665 58.826 110.151 86.3564 141.245 106.568C131.147 108.991 120.493 110.592 110.109 114.18C112.482 116.563 114.145 119.555 114.914 122.823C116.1 128.214 114.619 131.986 109.865 134.945C99.9855 141.132 89.2226 145.483 78.2409 149.197C71.8791 151.351 66.4598 149.021 62.1345 144.024C60.2243 141.811 58.3309 139.581 56.5216 137.318C55.3183 135.8 55.3183 134.124 56.8582 132.858C58.3982 131.592 59.9802 132.02 61.2761 133.512C63.2116 135.691 65.1387 137.888 67.1162 140.034C69.9016 143.06 73.1666 144.452 77.2816 142.884C86.6981 139.305 96.022 135.54 104.858 130.687C109.065 128.356 109.654 126.705 107.887 122.161C107.318 121.045 106.82 119.894 106.398 118.715C106.145 117.684 106.347 116.553 106.347 114.884C98.8411 117.181 91.419 119.361 84.0558 121.733C66.2551 127.479 48.6619 133.825 31.2764 140.772C26.2526 142.758 18.5107 139.405 13.8992 133.428C9.89366 128.272 9.04374 122.303 9.43925 116.024C9.57389 113.996 11.0045 112.856 12.435 111.69C30.0646 97.3216 44.6395 80.0941 58.718 62.3889C68.9086 49.5291 78.2578 36.0489 87.1609 22.2754C87.5144 21.7556 87.8257 21.0179 88.1455 21.0598Z" fill="#F06B41"/>
<path d="M173.693 80.0939C173.693 88.913 173.483 94.8483 169.115 99.7357C164.984 104.372 159.8 105.654 153.918 104.539C142.44 102.36 133.722 95.5441 125.694 87.6136C109.84 71.8532 98.5803 53.427 93.8594 31.4463C92.601 26.1349 92.4464 20.6232 93.405 15.25C95.9295 2.00461 106.028 -3.19296 118.785 1.9627C132.199 7.40338 142.212 16.935 150.998 27.9086C159.724 38.6288 166.36 50.8806 170.563 64.0317C172.507 70.1514 173.82 76.4053 173.693 80.0939ZM121.175 44.2558C116.37 44.4371 111.71 45.9401 107.711 48.5983C105.699 49.839 105.674 51.0462 106.701 53.0581C109.73 59.0186 112.827 65.0042 116.992 70.1766C124.431 79.3981 122.967 81.0244 132.695 70.9646C137.071 66.4293 138.788 60.9048 135.994 54.8354C133.091 48.4306 128.041 44.6247 121.175 44.2558Z" fill="#F06B41"/>
<path d="M6.98211 120.031C4.88675 131.349 11.0298 137.955 20.1685 142.909C21.9021 143.856 23.7786 145.231 22.4238 147.52C21.069 149.808 19.1503 149.557 16.9287 148.467C4.98774 142.59 -0.843918 132.698 0.0985717 119.763C0.266873 117.541 0.670797 115.244 3.36362 115.236C6.23317 115.228 6.72966 117.676 6.98211 120.031Z" fill="#F06B41"/>
<path d="M121.175 44.2556C128.025 44.6245 133.074 48.4472 136.036 54.8352C138.83 60.8627 137.113 66.4291 132.737 70.9644C123.009 81.0242 124.473 79.4063 117.035 70.1764C112.869 65.004 109.772 59.0184 106.743 53.0579C105.716 51.046 105.742 49.8388 107.753 48.5981C111.74 45.9473 116.385 44.4446 121.175 44.2556V44.2556Z" fill="white"/>
<g clip-path="url(#clip0_8_2)">
<path d="M149.282 49.1435C147.876 48.9893 146.656 48.5883 146.099 47.12C145.387 45.2692 146.235 43.9366 147.691 42.9125C151.865 39.9882 156.053 37.0824 160.256 34.1952C164.3 31.4251 168.412 28.7045 172.437 25.9591C172.778 25.7308 173.056 25.4409 173.44 25.2434C175.441 24.1083 177.497 23.8368 178.884 25.9776C180.271 28.1184 178.977 29.6792 177.23 30.8761C170.381 35.573 163.52 40.2473 156.645 44.899C155.122 45.9293 153.549 46.9225 152.094 47.9837C151.268 48.5972 150.302 48.9959 149.282 49.1435V49.1435Z" fill="white"/>
<path d="M135.59 33.3259C135.855 32.3962 136.192 31.4886 136.599 30.6114C141.417 21.8324 146.291 13.0843 151.103 4.33C152.187 2.32496 153.716 1.1898 155.834 2.29412C158.113 3.47246 158.045 5.58855 156.949 7.59976C152.024 16.681 147.069 25.7438 142.086 34.7881C141.219 36.3613 139.826 37.1694 137.968 36.7191C136.314 36.3119 135.751 35.0595 135.59 33.3259Z" fill="white"/>
<path d="M185.863 65.2825L157.228 63.3762C154.75 63.2096 152.942 62.0621 153.202 59.3846C153.45 56.812 155.679 56.6393 157.667 56.7626C167.83 57.3796 177.998 58.052 188.155 58.8047C190.297 58.9651 192.26 59.6622 191.969 62.5433C191.697 65.2517 189.789 65.4121 187.715 65.3874C187.096 65.3874 186.476 65.3874 185.857 65.3874L185.863 65.2825Z" fill="white"/>
</g>
<defs>
<clipPath id="clip0_8_2">
<rect width="56.4105" height="63.5258" fill="white" transform="translate(135.59 1.86157)"/>
</clipPath>
</defs>
</svg>
