<svg width="1028" height="150" viewBox="0 0 1028 150" fill="none" xmlns="http://www.w3.org/2000/svg">
<path d="M925.1 123.5C925.967 123.5 926.775 123.75 927.525 124.25C928.292 124.75 928.908 125.425 929.375 126.275C929.842 127.125 930.075 128.075 930.075 129.125C930.075 130.158 929.842 131.1 929.375 131.95C928.908 132.8 928.292 133.483 927.525 134C926.775 134.5 925.967 134.75 925.1 134.75H920.5L920.75 134.3V139.475C920.75 139.908 920.617 140.275 920.35 140.575C920.083 140.858 919.733 141 919.3 141C918.883 141 918.542 140.858 918.275 140.575C918.008 140.275 917.875 139.908 917.875 139.475V125.025C917.875 124.592 918.017 124.233 918.3 123.95C918.6 123.65 918.967 123.5 919.4 123.5H925.1ZM925.1 131.9C925.417 131.9 925.725 131.767 926.025 131.5C926.325 131.233 926.575 130.892 926.775 130.475C926.975 130.042 927.075 129.592 927.075 129.125C927.075 128.642 926.975 128.192 926.775 127.775C926.575 127.358 926.325 127.025 926.025 126.775C925.725 126.508 925.417 126.375 925.1 126.375H920.45L920.75 125.925V132.3L920.475 131.9H925.1ZM934.738 141C934.272 141 933.855 140.858 933.488 140.575C933.122 140.275 932.938 139.908 932.938 139.475V125.025C932.938 124.592 933.08 124.233 933.363 123.95C933.663 123.65 934.03 123.5 934.463 123.5H941.663C942.53 123.5 943.338 123.733 944.088 124.2C944.855 124.65 945.472 125.283 945.938 126.1C946.405 126.9 946.638 127.825 946.638 128.875C946.638 129.508 946.505 130.125 946.238 130.725C945.988 131.325 945.638 131.867 945.188 132.35C944.755 132.833 944.263 133.208 943.713 133.475L943.738 132.9C944.205 133.15 944.588 133.45 944.888 133.8C945.205 134.133 945.447 134.5 945.613 134.9C945.797 135.283 945.905 135.7 945.938 136.15C946.005 136.567 946.047 136.933 946.063 137.25C946.097 137.567 946.147 137.833 946.213 138.05C946.297 138.267 946.447 138.433 946.663 138.55C947.03 138.767 947.255 139.083 947.338 139.5C947.438 139.9 947.347 140.258 947.063 140.575C946.88 140.792 946.647 140.933 946.363 141C946.08 141.05 945.797 141.05 945.513 141C945.23 140.933 944.997 140.85 944.813 140.75C944.53 140.583 944.247 140.342 943.963 140.025C943.68 139.692 943.447 139.25 943.263 138.7C943.097 138.15 943.013 137.442 943.013 136.575C943.013 136.292 942.963 136.033 942.863 135.8C942.763 135.55 942.622 135.342 942.438 135.175C942.255 134.992 942.022 134.858 941.738 134.775C941.455 134.675 941.122 134.625 940.738 134.625H935.688L936.063 134.05V139.475C936.063 139.908 935.947 140.275 935.713 140.575C935.48 140.858 935.155 141 934.738 141ZM935.713 132.05H941.538C941.838 132.05 942.13 131.917 942.413 131.65C942.697 131.367 942.93 130.992 943.113 130.525C943.297 130.042 943.388 129.517 943.388 128.95C943.388 128.217 943.188 127.608 942.788 127.125C942.405 126.625 941.988 126.375 941.538 126.375H935.763L936.063 125.575V132.65L935.713 132.05ZM951.627 123.5H960.002C960.435 123.5 960.793 123.642 961.077 123.925C961.377 124.192 961.527 124.542 961.527 124.975C961.527 125.392 961.377 125.733 961.077 126C960.793 126.25 960.435 126.375 960.002 126.375H953.002L953.227 125.95V130.825L953.027 130.625H958.877C959.31 130.625 959.668 130.767 959.952 131.05C960.252 131.317 960.402 131.667 960.402 132.1C960.402 132.517 960.252 132.858 959.952 133.125C959.668 133.375 959.31 133.5 958.877 133.5H953.102L953.227 133.3V138.35L953.027 138.125H960.002C960.435 138.125 960.793 138.275 961.077 138.575C961.377 138.858 961.527 139.192 961.527 139.575C961.527 139.992 961.377 140.333 961.077 140.6C960.793 140.867 960.435 141 960.002 141H951.627C951.193 141 950.827 140.858 950.527 140.575C950.243 140.275 950.102 139.908 950.102 139.475V125.025C950.102 124.592 950.243 124.233 950.527 123.95C950.827 123.65 951.193 123.5 951.627 123.5ZM977.183 123.45C977.6 123.45 977.958 123.592 978.258 123.875C978.575 124.142 978.733 124.483 978.733 124.9C978.733 125.117 978.683 125.342 978.583 125.575L972.408 140.025C972.258 140.358 972.042 140.608 971.758 140.775C971.492 140.925 971.217 141 970.933 141C970.667 140.983 970.408 140.9 970.158 140.75C969.908 140.583 969.717 140.35 969.583 140.05L963.408 125.55C963.358 125.45 963.325 125.35 963.308 125.25C963.292 125.133 963.283 125.025 963.283 124.925C963.283 124.442 963.458 124.075 963.808 123.825C964.158 123.558 964.492 123.425 964.808 123.425C965.442 123.425 965.9 123.75 966.183 124.4L971.658 137.275L970.783 137.3L975.808 124.4C976.092 123.767 976.55 123.45 977.183 123.45ZM984.477 139.475C984.477 139.908 984.318 140.275 984.002 140.575C983.685 140.858 983.318 141 982.902 141C982.435 141 982.06 140.858 981.777 140.575C981.493 140.275 981.352 139.908 981.352 139.475V125.025C981.352 124.592 981.502 124.233 981.802 123.95C982.102 123.65 982.485 123.5 982.952 123.5C983.352 123.5 983.702 123.65 984.002 123.95C984.318 124.233 984.477 124.592 984.477 125.025V139.475ZM989.761 123.5H998.136C998.57 123.5 998.928 123.642 999.211 123.925C999.511 124.192 999.661 124.542 999.661 124.975C999.661 125.392 999.511 125.733 999.211 126C998.928 126.25 998.57 126.375 998.136 126.375H991.136L991.361 125.95V130.825L991.161 130.625H997.011C997.445 130.625 997.803 130.767 998.086 131.05C998.386 131.317 998.536 131.667 998.536 132.1C998.536 132.517 998.386 132.858 998.086 133.125C997.803 133.375 997.445 133.5 997.011 133.5H991.236L991.361 133.3V138.35L991.161 138.125H998.136C998.57 138.125 998.928 138.275 999.211 138.575C999.511 138.858 999.661 139.192 999.661 139.575C999.661 139.992 999.511 140.333 999.211 140.6C998.928 140.867 998.57 141 998.136 141H989.761C989.328 141 988.961 140.858 988.661 140.575C988.378 140.275 988.236 139.908 988.236 139.475V125.025C988.236 124.592 988.378 124.233 988.661 123.95C988.961 123.65 989.328 123.5 989.761 123.5ZM1022.22 123.425C1022.6 123.425 1022.97 123.575 1023.32 123.875C1023.67 124.158 1023.84 124.55 1023.84 125.05C1023.84 125.2 1023.82 125.367 1023.77 125.55L1018.84 140.05C1018.74 140.35 1018.56 140.583 1018.29 140.75C1018.04 140.9 1017.78 140.983 1017.49 141C1017.21 141 1016.93 140.917 1016.64 140.75C1016.38 140.583 1016.17 140.342 1016.02 140.025L1012.32 131.625L1012.54 131.775L1008.89 140.025C1008.74 140.342 1008.53 140.583 1008.24 140.75C1007.98 140.917 1007.7 141 1007.42 141C1007.15 140.983 1006.88 140.9 1006.62 140.75C1006.35 140.583 1006.17 140.35 1006.07 140.05L1001.14 125.55C1001.09 125.367 1001.07 125.2 1001.07 125.05C1001.07 124.55 1001.24 124.158 1001.59 123.875C1001.96 123.575 1002.33 123.425 1002.72 123.425C1003.03 123.425 1003.33 123.508 1003.59 123.675C1003.88 123.842 1004.07 124.083 1004.17 124.4L1008.14 136.45L1007.59 136.425L1011.14 127.9C1011.28 127.6 1011.47 127.367 1011.72 127.2C1011.97 127.017 1012.25 126.933 1012.57 126.95C1012.88 126.933 1013.17 127.017 1013.42 127.2C1013.67 127.367 1013.85 127.6 1013.97 127.9L1017.22 136.05L1016.82 136.3L1020.74 124.4C1020.84 124.083 1021.03 123.842 1021.32 123.675C1021.6 123.508 1021.9 123.425 1022.22 123.425Z" fill="#130FBE"/>
<path d="M244.441 87.7189C244.441 98.2717 249.485 98.9396 249.485 98.9396H224C224 98.9396 228.778 98.2717 228.778 87.5853V21.1961C228.778 10.6433 224 9.8418 224 9.8418H249.485C249.485 9.8418 244.441 10.5097 244.441 21.4633V56.3276L274.971 21.1961C284.129 10.6433 279.882 9.8418 279.882 9.8418H296.872C296.872 9.8418 291.297 10.5097 281.74 21.4633L254.927 52.3202L283.068 87.7189C291.563 98.2717 297.005 98.9396 297.005 98.9396H271.519C271.519 98.9396 275.9 98.2717 267.405 87.5853L246.698 61.6708L244.441 64.3424V87.7189Z" fill="white"/>
<path d="M413.016 75.8303V21.4633C413.016 10.5097 417.927 9.8418 417.927 9.8418H392.442C392.442 9.8418 397.353 10.6433 397.353 21.1961V75.5631C397.353 86.3831 392.442 86.9174 392.442 86.9174H417.927C417.927 86.9174 413.016 86.2495 413.016 75.8303Z" fill="white"/>
<path d="M438.767 30.4127C438.767 13.8488 455.359 9.97498 468.766 9.97498C480.824 9.97376 492.737 12.6177 503.675 17.7226L496.109 29.3441C495.18 25.7374 483.5 14.2495 468.766 14.2495C456.156 14.2495 453.103 21.3293 453.103 26.6725C453.103 37.2253 458.545 36.4238 473.943 42.4349C490.402 48.7132 507.525 54.7243 507.525 74.6277C507.525 94.5311 490.136 98.9392 467.704 98.9392C454.43 98.9392 439.829 94.5311 433.856 88.2528L445.537 73.6926C446.774 79.4854 449.987 84.66 454.617 88.3196C459.247 91.9792 465.004 93.8931 470.89 93.7296C482.039 93.7296 491.729 89.8558 491.729 76.4978C491.729 63.1398 471.155 55.6593 461.2 52.3198C446.201 47.1102 438.767 40.5648 438.767 30.4127Z" fill="white"/>
<path d="M591.015 9.8418L590.882 27.0736C590.882 27.0736 587.829 15.5857 563.937 13.9828C563.199 16.2679 562.84 18.6599 562.875 21.0625V87.3182C562.875 98.2717 567.919 98.9396 567.919 98.9396H542.434C542.434 98.9396 547.212 98.1381 547.212 87.5853V21.1961C547.312 18.7459 546.952 16.2986 546.15 13.9828C522.523 15.5857 519.47 27.0736 519.47 27.0736V9.8418H591.015Z" fill="white"/>
<path d="M638.561 66.7465L633.132 52.3198H606.186L600.757 66.7465C597.851 74.5475 601.235 75.0284 601.235 75.0284H588.931C588.931 75.0284 592.714 74.5475 595.567 66.84L613.646 18.4573C616.646 10.4425 613.168 9.97498 613.168 9.97498H624.69C626.535 9.97498 628.765 10.8566 631.964 18.4573L649.989 66.84C652.896 74.5475 656.626 75.0284 656.626 75.0284H638.136C638.136 75.0284 641.468 74.5475 638.561 66.7465ZM631.579 48.1121L620.429 18.2703C620.237 17.5962 619.979 16.9429 619.659 16.32C619.34 16.945 619.078 17.5978 618.876 18.2703L607.739 48.1121H631.579Z" fill="white"/>
<path d="M708.885 100.542C683.267 100.542 662.56 79.9711 662.56 54.7245C662.56 31.8823 678.886 9.57446 710.61 9.57446C727.468 9.57446 741.007 14.9177 746.98 26.8063L733.308 33.6189C732.777 24.0011 726.539 12.914 710.743 12.914C691.098 12.914 678.356 28.4092 678.356 53.6558C678.356 76.498 692.027 95.0656 708.885 95.0656C715.522 95.0656 726.539 95.4664 726.539 80.9062V63.5408C726.648 61.0463 726.288 58.5536 725.477 56.1939C699.195 56.9953 696.009 69.4183 696.009 69.4183L695.877 52.1865H747.246C747.246 52.1865 742.202 52.8544 742.202 63.8079V87.7187C742.202 98.2716 747.246 98.9395 747.246 98.9395C729.99 97.3365 723.751 100.542 708.885 100.542Z" fill="white"/>
<path d="M840.027 94.9319C816.135 94.9319 808.927 78.3413 806.843 67.2274C809.206 66.8401 811.529 66.2924 813.852 65.6779C815.494 65.2413 817.111 64.7151 818.697 64.1017C821.575 63.0017 824.293 61.5192 826.78 59.6935C829.063 58.0223 831.054 55.9821 832.674 53.6557C834.246 51.3899 835.418 48.8684 836.138 46.202C836.792 43.736 837.118 41.1936 837.107 38.6413C837.107 18.6578 816.268 10.5094 790.782 10.5094H761.448C761.448 10.5094 766.226 11.3109 766.226 21.8637V88.2529C766.226 98.9393 761.448 99.6072 761.448 99.6072H786.933C786.933 99.6072 781.889 98.9393 781.889 88.3865V66.4794H782.062C785.351 67.1453 788.682 67.5915 792.03 67.8152C799.198 88.3064 812.471 98.9393 834.718 98.9393C848.257 98.9393 858.079 94.5312 861.531 86.7835C860.867 87.7186 854.628 94.9319 840.027 94.9319ZM781.889 61.5369V22.1309C781.867 20.5187 782 18.9082 782.287 17.322C785.01 16.3154 787.882 15.7737 790.782 15.719C807.507 15.719 821.179 22.6652 821.179 39.6298C821.179 56.5945 807.507 62.6056 790.65 62.6056C787.697 62.6147 784.754 62.2558 781.889 61.5369Z" fill="#F06B41"/>
<path d="M1013.78 21.4633L1018.29 87.7189C1019.09 98.2717 1024 98.9396 1024 98.9396H998.515C998.515 98.9396 1003.43 98.2717 1002.63 87.5853L998.116 21.1961C997.984 19.9939 997.851 18.9252 997.718 17.9902C997.32 18.8807 996.922 19.9493 996.524 21.1961L973.427 91.5927C972.498 94.5315 970.773 98.9396 962.941 98.9396L937.39 21.1961C936.859 19.7267 936.328 18.3909 935.797 17.1887C935.537 18.5121 935.36 19.8505 935.266 21.1961L930.753 87.5853C929.956 98.2717 934.868 98.9396 934.868 98.9396H918.01C918.01 98.9396 923.054 98.2717 923.718 87.7189L928.231 21.4633C929.027 10.5097 924.116 9.8418 924.116 9.8418H954.38C954.38 9.8418 949.469 10.5097 953.185 21.4633L971.304 76.7654L989.489 21.4633C993.072 10.5097 988.161 9.8418 988.161 9.8418H1017.89C1017.89 9.8418 1012.92 10.5097 1013.78 21.4633Z" fill="white"/>
<path d="M542.858 117.774C540.415 119.048 537.902 120.181 535.332 121.167C531.582 122.559 527.752 123.723 523.864 124.654C515.143 126.893 506.27 128.478 497.316 129.396C447.54 134.739 419.002 113.74 389.734 91.9133C383.562 87.3048 370.753 75.7501 364.076 71.4622C362.934 70.7275 361.793 69.9928 360.625 69.2849C359.005 68.3052 357.246 67.58 355.408 67.1342C357.103 66.9008 358.78 66.5482 360.426 66.079C361.681 65.7322 362.958 65.4689 364.248 65.2908C379.818 61.5105 388.592 51.8928 388.592 38.0272C388.592 17.9902 367.753 9.8418 342.267 9.8418H312.933C312.933 9.8418 317.711 10.6433 317.711 21.1961V87.5853C317.711 98.2717 312.933 98.9396 312.933 98.9396H338.418C338.418 98.9396 333.374 98.2717 333.374 87.7189V65.8118C334.184 66.0389 334.94 66.2259 335.67 66.3995L333.374 66.3194C337.223 66.5331 341.524 69.2582 344.272 70.7409C363.2 81.0132 377.456 94.1575 393.464 106.18C422.666 128.154 466.668 144.717 511.201 133.737C522.868 130.852 534.628 126.537 543.96 120.98C544.345 120.74 574.502 100.783 542.858 117.774ZM333.374 60.8693V21.4633C333.352 19.8511 333.485 18.2406 333.772 16.6544C336.496 15.6478 339.367 15.1061 342.267 15.0514C358.992 15.0514 372.664 21.9976 372.664 38.9622C372.664 55.9269 358.992 61.938 342.135 61.938C339.182 61.9471 336.239 61.5882 333.374 60.8693Z" fill="#F06B41"/>
<path d="M891.316 98.9659H916.775C916.775 98.9659 911.599 98.298 907.63 87.7586L882.967 21.5964C878.587 11.1638 875.547 9.97498 873.079 9.97498H857.243C857.243 9.97498 862.022 10.6429 857.907 21.5831L840.718 67.7082L838.063 74.8948C834.081 85.4343 828.917 86.1022 828.917 86.1022H845.735C845.735 86.1022 841.54 85.5011 844.54 76.2707L847.699 67.8819H884.56L891.98 87.625C895.962 98.298 891.316 98.9659 891.316 98.9659ZM849.823 62.138L865.114 21.3159C865.388 20.395 865.743 19.5008 866.176 18.6443C866.61 19.5008 866.965 20.395 867.238 21.3159L882.49 62.138H849.823Z" fill="white"/>
<ellipse cx="625.066" cy="94.6739" rx="10.6658" ry="10.6374" fill="#F06B41"/>
<path d="M88.1455 21.0598C91.1665 58.826 110.151 86.3564 141.245 106.568C131.147 108.991 120.493 110.592 110.109 114.18C112.482 116.563 114.145 119.555 114.914 122.823C116.1 128.214 114.619 131.986 109.865 134.945C99.9855 141.132 89.2226 145.483 78.241 149.197C71.8791 151.351 66.4598 149.021 62.1345 144.024C60.2243 141.811 58.3309 139.581 56.5216 137.318C55.3183 135.8 55.3183 134.124 56.8582 132.858C58.3982 131.592 59.9802 132.02 61.2761 133.512C63.2116 135.691 65.1387 137.888 67.1162 140.034C69.9016 143.06 73.1666 144.452 77.2816 142.884C86.6981 139.305 96.022 135.54 104.858 130.687C109.065 128.356 109.654 126.705 107.887 122.161C107.318 121.045 106.82 119.894 106.398 118.715C106.145 117.684 106.347 116.553 106.347 114.884C98.8411 117.181 91.419 119.361 84.0558 121.733C66.2551 127.479 48.6619 133.825 31.2764 140.772C26.2526 142.758 18.5107 139.405 13.8992 133.428C9.89366 128.272 9.04374 122.303 9.43925 116.024C9.57389 113.996 11.0045 112.856 12.435 111.69C30.0646 97.3216 44.6395 80.0941 58.718 62.3889C68.9086 49.5291 78.2578 36.0489 87.1609 22.2754C87.5144 21.7556 87.8257 21.0179 88.1455 21.0598Z" fill="#F06B41"/>
<path d="M173.693 80.0939C173.693 88.913 173.483 94.8483 169.115 99.7357C164.984 104.372 159.8 105.654 153.918 104.539C142.44 102.36 133.722 95.5441 125.694 87.6136C109.84 71.8532 98.5803 53.427 93.8594 31.4463C92.601 26.1349 92.4464 20.6232 93.405 15.25C95.9295 2.00461 106.028 -3.19296 118.785 1.9627C132.199 7.40338 142.212 16.935 150.998 27.9086C159.724 38.6288 166.36 50.8806 170.563 64.0317C172.507 70.1514 173.82 76.4053 173.693 80.0939ZM121.175 44.2558C116.37 44.4371 111.71 45.9401 107.711 48.5983C105.699 49.839 105.674 51.0462 106.701 53.0581C109.73 59.0186 112.827 65.0042 116.992 70.1766C124.431 79.3981 122.967 81.0244 132.695 70.9646C137.071 66.4293 138.788 60.9048 135.994 54.8354C133.091 48.4306 128.041 44.6247 121.175 44.2558Z" fill="#F06B41"/>
<path d="M6.98211 120.031C4.88675 131.349 11.0298 137.955 20.1685 142.909C21.9021 143.856 23.7786 145.231 22.4238 147.52C21.069 149.808 19.1503 149.557 16.9287 148.467C4.98774 142.59 -0.843918 132.698 0.0985717 119.763C0.266873 117.541 0.670797 115.244 3.36362 115.236C6.23317 115.228 6.72966 117.676 6.98211 120.031Z" fill="#F06B41"/>
<path d="M121.175 44.2556C128.025 44.6245 133.074 48.4472 136.036 54.8352C138.83 60.8627 137.113 66.4291 132.737 70.9644C123.009 81.0242 124.473 79.4063 117.035 70.1764C112.869 65.004 109.772 59.0184 106.743 53.0579C105.716 51.046 105.742 49.8388 107.753 48.5981C111.74 45.9473 116.385 44.4446 121.175 44.2556Z" fill="white"/>
<g clip-path="url(#clip0_8_2)">
<path d="M149.282 49.1435C147.876 48.9893 146.656 48.5883 146.099 47.12C145.387 45.2692 146.235 43.9366 147.691 42.9125C151.865 39.9882 156.053 37.0824 160.256 34.1952C164.3 31.4251 168.412 28.7045 172.437 25.9591C172.778 25.7308 173.056 25.4409 173.44 25.2434C175.441 24.1083 177.497 23.8368 178.884 25.9776C180.271 28.1184 178.977 29.6792 177.23 30.8761C170.381 35.573 163.52 40.2473 156.645 44.899C155.122 45.9293 153.549 46.9225 152.094 47.9837C151.268 48.5972 150.302 48.9959 149.282 49.1435Z" fill="white"/>
<path d="M135.59 33.3259C135.855 32.3962 136.192 31.4886 136.599 30.6114C141.417 21.8324 146.291 13.0843 151.103 4.33C152.187 2.32496 153.716 1.1898 155.834 2.29412C158.113 3.47246 158.045 5.58855 156.949 7.59976C152.024 16.681 147.069 25.7438 142.086 34.7881C141.219 36.3613 139.826 37.1694 137.968 36.7191C136.314 36.3119 135.751 35.0595 135.59 33.3259Z" fill="white"/>
<path d="M185.863 65.2825L157.228 63.3762C154.75 63.2096 152.942 62.0621 153.202 59.3846C153.45 56.812 155.679 56.6393 157.667 56.7626C167.83 57.3796 177.998 58.052 188.155 58.8047C190.297 58.9651 192.26 59.6622 191.969 62.5433C191.697 65.2517 189.79 65.4121 187.715 65.3874C187.096 65.3874 186.476 65.3874 185.857 65.3874L185.863 65.2825Z" fill="white"/>
</g>
<defs>
<clipPath id="clip0_8_2">
<rect width="56.4105" height="63.5258" fill="white" transform="translate(135.59 1.86157)"/>
</clipPath>
</defs>
</svg>
